<svg width="126" height="32" viewBox="0 0 126 32" fill="none" xmlns="http://www.w3.org/2000/svg">
<g clip-path="url(#clip0_1_87)">
<path d="M26.2504 24.0405L29.3042 29.3045H32.3784C29.554 24.4259 26.748 19.5728 23.9327 14.7037C22.1353 11.5952 20.3342 8.48022 18.5222 5.34792L12.3666 15.9766H9.28031C11.7896 11.6385 14.2766 7.33694 16.7946 2.9819L18.5186 0L23.3988 8.4359C27.9227 16.256 32.4334 24.0533 36.97 31.8957H27.7111C27.2526 31.1046 25.5034 28.0863 24.6911 26.6845H9.25989C9.8017 25.7456 10.293 24.8942 10.7844 24.0465L26.2504 24.0405Z" fill="#E92D28"/>
<path d="M24.5596 31.8957L23.1161 29.2901H4.66837L9.29953 21.2886H24.6622L18.521 10.6743C18.0163 11.544 17.5606 12.3321 17.1101 13.1111L16.9785 13.3386L20.0467 18.6698H7.73178C7.69098 18.7372 7.65204 18.8009 7.61457 18.8621C7.53951 18.9847 7.47032 19.0978 7.40382 19.213C5.11086 23.1915 2.8111 27.1661 0.504533 31.1367C0.443048 31.232 0.361116 31.3818 0.273391 31.5422C0.208899 31.6601 0.141222 31.7838 0.0762939 31.8957H24.5596Z" fill="#E92D28"/>
</g>
<path d="M40.33 21V7.7H46.41C47.626 7.7 48.671 7.89633 49.545 8.289C50.4317 8.68167 51.1157 9.25167 51.597 9.999C52.0783 10.7337 52.319 11.6077 52.319 12.621C52.319 13.6217 52.0783 14.4893 51.597 15.224C51.1157 15.9587 50.4317 16.5287 49.545 16.934C48.671 17.3267 47.626 17.523 46.41 17.523H42.42L44.092 15.889V21H40.33ZM44.092 16.288L42.42 14.559H46.182C46.9673 14.559 47.55 14.388 47.93 14.046C48.3227 13.704 48.519 13.229 48.519 12.621C48.519 12.0003 48.3227 11.519 47.93 11.177C47.55 10.835 46.9673 10.664 46.182 10.664H42.42L44.092 8.935V16.288ZM54.1532 21V7.7H60.2332C61.4492 7.7 62.4942 7.89633 63.3682 8.289C64.2549 8.68167 64.9389 9.25167 65.4202 9.999C65.9016 10.7337 66.1422 11.6077 66.1422 12.621C66.1422 13.6217 65.9016 14.4893 65.4202 15.224C64.9389 15.946 64.2549 16.5033 63.3682 16.896C62.4942 17.276 61.4492 17.466 60.2332 17.466H56.2432L57.9152 15.889V21H54.1532ZM62.3802 21L59.0742 16.155H63.0832L66.4082 21H62.3802ZM57.9152 16.288L56.2432 14.559H60.0052C60.7906 14.559 61.3732 14.388 61.7532 14.046C62.1459 13.704 62.3422 13.229 62.3422 12.621C62.3422 12.0003 62.1459 11.519 61.7532 11.177C61.3732 10.835 60.7906 10.664 60.0052 10.664H56.2432L57.9152 8.935V16.288ZM74.9247 21.266C73.8607 21.266 72.879 21.095 71.9797 20.753C71.0804 20.411 70.295 19.9297 69.6237 19.309C68.965 18.6757 68.452 17.941 68.0847 17.105C67.7174 16.269 67.5337 15.3507 67.5337 14.35C67.5337 13.3493 67.7174 12.431 68.0847 11.595C68.452 10.759 68.965 10.0307 69.6237 9.41C70.295 8.77667 71.0804 8.289 71.9797 7.947C72.879 7.605 73.8607 7.434 74.9247 7.434C76.0014 7.434 76.983 7.605 77.8697 7.947C78.769 8.289 79.548 8.77667 80.2067 9.41C80.8654 10.0307 81.3784 10.759 81.7457 11.595C82.1257 12.431 82.3157 13.3493 82.3157 14.35C82.3157 15.3507 82.1257 16.2753 81.7457 17.124C81.3784 17.96 80.8654 18.6883 80.2067 19.309C79.548 19.9297 78.769 20.411 77.8697 20.753C76.983 21.095 76.0014 21.266 74.9247 21.266ZM74.9247 18.15C75.4314 18.15 75.9 18.0613 76.3307 17.884C76.774 17.7067 77.154 17.4533 77.4707 17.124C77.8 16.782 78.0534 16.3767 78.2307 15.908C78.4207 15.4393 78.5157 14.92 78.5157 14.35C78.5157 13.7673 78.4207 13.248 78.2307 12.792C78.0534 12.3233 77.8 11.9243 77.4707 11.595C77.154 11.253 76.774 10.9933 76.3307 10.816C75.9 10.6387 75.4314 10.55 74.9247 10.55C74.418 10.55 73.943 10.6387 73.4997 10.816C73.069 10.9933 72.689 11.253 72.3597 11.595C72.043 11.9243 71.7897 12.3233 71.5997 12.792C71.4224 13.248 71.3337 13.7673 71.3337 14.35C71.3337 14.92 71.4224 15.4393 71.5997 15.908C71.7897 16.3767 72.043 16.782 72.3597 17.124C72.689 17.4533 73.069 17.7067 73.4997 17.884C73.943 18.0613 74.418 18.15 74.9247 18.15ZM87.7821 13.533H93.9191V16.44H87.7821V13.533ZM88.0481 21H84.2861V7.7H94.7171V10.607H88.0481V21ZM96.4765 21V7.7H100.238V21H96.4765ZM102.915 21V7.7H106.677V18.017H113.023V21H102.915ZM117.97 12.849H124.145V15.661H117.97V12.849ZM118.236 18.093H125.19V21H114.512V7.7H124.943V10.607H118.236V18.093Z" fill="white"/>
<path d="M51.498 30.6606V26.4606H52.302L54.09 29.4246H53.664L55.422 26.4606H56.22L56.232 30.6606H55.32L55.314 27.8586H55.482L54.078 30.2166H53.64L52.206 27.8586H52.41V30.6606H51.498ZM58.4765 30.6606L60.3485 26.4606H61.3085L63.1865 30.6606H62.1665L60.6305 26.9526H61.0145L59.4725 30.6606H58.4765ZM59.4125 29.7606L59.6705 29.0226H61.8305L62.0945 29.7606H59.4125ZM65.4222 30.6606V26.4606H66.2262L68.7042 29.4846H68.3142V26.4606H69.2742V30.6606H68.4762L65.9922 27.6366H66.3822V30.6606H65.4222ZM73.9339 30.7326C73.3379 30.7326 72.8719 30.5666 72.5359 30.2346C72.1999 29.9026 72.0319 29.4286 72.0319 28.8126V26.4606H73.0039V28.7766C73.0039 29.1766 73.0859 29.4646 73.2499 29.6406C73.4139 29.8166 73.6439 29.9046 73.9399 29.9046C74.2359 29.9046 74.4659 29.8166 74.6299 29.6406C74.7939 29.4646 74.8759 29.1766 74.8759 28.7766V26.4606H75.8359V28.8126C75.8359 29.4286 75.6679 29.9026 75.3319 30.2346C74.9959 30.5666 74.5299 30.7326 73.9339 30.7326ZM79.4964 28.3506H81.5124V29.1306H79.4964V28.3506ZM79.5684 30.6606H78.5964V26.4606H81.7704V27.2406H79.5684V30.6606ZM83.5065 30.6606L85.3785 26.4606H86.3385L88.2165 30.6606H87.1965L85.6605 26.9526H86.0445L84.5025 30.6606H83.5065ZM84.4425 29.7606L84.7005 29.0226H86.8605L87.1245 29.7606H84.4425ZM92.4037 30.7326C92.0797 30.7326 91.7777 30.6806 91.4977 30.5766C91.2217 30.4686 90.9817 30.3166 90.7777 30.1206C90.5737 29.9246 90.4137 29.6946 90.2977 29.4306C90.1857 29.1666 90.1297 28.8766 90.1297 28.5606C90.1297 28.2446 90.1857 27.9546 90.2977 27.6906C90.4137 27.4266 90.5737 27.1966 90.7777 27.0006C90.9857 26.8046 91.2277 26.6546 91.5037 26.5506C91.7797 26.4426 92.0817 26.3886 92.4097 26.3886C92.7737 26.3886 93.1017 26.4526 93.3937 26.5806C93.6897 26.7046 93.9377 26.8886 94.1377 27.1326L93.5137 27.7086C93.3697 27.5446 93.2097 27.4226 93.0337 27.3426C92.8577 27.2586 92.6657 27.2166 92.4577 27.2166C92.2617 27.2166 92.0817 27.2486 91.9177 27.3126C91.7537 27.3766 91.6117 27.4686 91.4917 27.5886C91.3717 27.7086 91.2777 27.8506 91.2097 28.0146C91.1457 28.1786 91.1137 28.3606 91.1137 28.5606C91.1137 28.7606 91.1457 28.9426 91.2097 29.1066C91.2777 29.2706 91.3717 29.4126 91.4917 29.5326C91.6117 29.6526 91.7537 29.7446 91.9177 29.8086C92.0817 29.8726 92.2617 29.9046 92.4577 29.9046C92.6657 29.9046 92.8577 29.8646 93.0337 29.7846C93.2097 29.7006 93.3697 29.5746 93.5137 29.4066L94.1377 29.9826C93.9377 30.2266 93.6897 30.4126 93.3937 30.5406C93.1017 30.6686 92.7717 30.7326 92.4037 30.7326ZM97.4231 30.6606V27.2526H96.0791V26.4606H99.7391V27.2526H98.3951V30.6606H97.4231ZM103.858 30.7326C103.262 30.7326 102.796 30.5666 102.46 30.2346C102.124 29.9026 101.956 29.4286 101.956 28.8126V26.4606H102.928V28.7766C102.928 29.1766 103.01 29.4646 103.174 29.6406C103.338 29.8166 103.568 29.9046 103.864 29.9046C104.16 29.9046 104.39 29.8166 104.554 29.6406C104.718 29.4646 104.8 29.1766 104.8 28.7766V26.4606H105.76V28.8126C105.76 29.4286 105.592 29.9026 105.256 30.2346C104.92 30.5666 104.454 30.7326 103.858 30.7326ZM108.52 30.6606V26.4606H110.338C110.714 26.4606 111.038 26.5226 111.31 26.6466C111.582 26.7666 111.792 26.9406 111.94 27.1686C112.088 27.3966 112.162 27.6686 112.162 27.9846C112.162 28.2966 112.088 28.5666 111.94 28.7946C111.792 29.0186 111.582 29.1906 111.31 29.3106C111.038 29.4306 110.714 29.4906 110.338 29.4906H109.06L109.492 29.0646V30.6606H108.52ZM111.19 30.6606L110.14 29.1366H111.178L112.24 30.6606H111.19ZM109.492 29.1726L109.06 28.7166H110.284C110.584 28.7166 110.808 28.6526 110.956 28.5246C111.104 28.3926 111.178 28.2126 111.178 27.9846C111.178 27.7526 111.104 27.5726 110.956 27.4446C110.808 27.3166 110.584 27.2526 110.284 27.2526H109.06L109.492 26.7906V29.1726ZM115.626 28.1526H117.648V28.9086H115.626V28.1526ZM115.698 29.8806H117.984V30.6606H114.732V26.4606H117.906V27.2406H115.698V29.8806Z" fill="white"/>
<defs>
<clipPath id="clip0_1_87">
<rect width="37" height="32" fill="white"/>
</clipPath>
</defs>
</svg>
